<svg width="194" height="75" viewBox="0 0 194 75" fill="none" xmlns="http://www.w3.org/2000/svg">
<path d="M105.463 24.0169C105.463 26.9163 100.211 29.2693 93.7318 29.2693C87.2534 29.2693 82 26.9163 82 24.0169C82 21.1136 87.2534 18.7622 93.7318 18.7622C100.211 18.7622 105.463 21.1136 105.463 24.0169" fill="#A6A8AB"/>
<path d="M101.621 30.0635C108.1 30.0635 113.352 27.7119 113.352 24.8111C113.352 21.9102 108.1 19.5586 101.621 19.5586C95.1426 19.5586 89.8905 21.9102 89.8905 24.8111C89.8905 27.7119 95.1426 30.0635 101.621 30.0635Z" fill="#A6A8AB"/>
<path d="M98.1897 28.177C93.3414 28.177 88.9937 26.9465 86.0472 25C86.0178 25.2628 86 25.5284 86 25.7979C86 30.88 91.3727 35 97.9995 35C104.627 35 110 30.8794 110 25.7979C110 25.604 109.99 25.4135 109.974 25.2236C107.041 27.0396 102.846 28.177 98.1887 28.177" fill="#D0D2D3"/>
<path d="M92.2252 27.4721C89.8334 26.9196 87.7203 26.0691 86.0488 25C86.0184 25.2628 86 25.5284 86 25.7979C86 30.88 91.5547 35 98.4061 35C98.9462 35 99.4768 34.9709 100 34.9216C95.8396 33.7068 92.7792 30.8783 92.2252 27.4721" fill="#B6B6B7"/>
<path d="M112 21.5029C112 25.0915 105.73 28 98.0005 28C90.2683 28 84 25.0874 84 21.5029C84 17.9131 90.2683 15 98.0005 15C105.73 15 112 17.9108 112 21.5029Z" fill="#D0D2D3"/>
<path d="M97.5 27C103.851 27 109 24.5376 109 21.5C109 18.4624 103.851 16 97.5 16C91.1487 16 86 18.4624 86 21.5C86 24.5376 91.1487 27 97.5 27Z" fill="#A6A8AB"/>
<path d="M88.78 17.115C87.9305 17.9572 87.0402 18.7375 86.1592 19.5372C85.3752 20.2461 86.3765 21.549 87.1983 21.0463C87.965 20.5801 88.7258 20.1228 89.5373 19.7611C89.2146 19.2889 88.8903 18.8182 88.5681 18.346C88.3554 18.7329 88.1171 19.1013 87.8551 19.4481C87.291 20.2456 88.0098 21.5943 88.8943 20.9584C89.4796 20.5392 90.0556 20.12 90.6661 19.7484L89.4939 18.4339C89.2845 18.8265 89.1209 19.2253 88.9539 19.6439C88.641 20.4203 89.351 21.5866 90.1261 20.9595C90.7558 20.4518 91.3515 19.9342 91.9176 19.3381C92.6784 18.5423 91.7166 17.4025 90.8795 17.8278C90.8322 17.8853 90.7878 17.9428 90.7425 18.0009C90.64 18.4405 90.537 18.8791 90.4355 19.3165C90.7742 19.076 91.1477 18.9038 91.5392 18.8077C92.3803 18.5346 92.335 17.2505 91.5392 16.9535C91.4619 16.9242 91.3855 16.8949 91.3086 16.8667V18.722C91.691 18.56 92.0645 18.4649 92.4656 18.3764C92.2443 17.7897 92.0251 17.2024 91.8043 16.6173C90.4143 17.3882 86.0094 18.6225 87.5679 21.3068C87.8132 20.8218 88.0606 20.3412 88.3079 19.8579C88.1527 19.8408 87.998 19.8236 87.8428 19.8054C86.8879 19.5786 86.3498 20.9634 87.1821 21.565C87.4728 21.799 87.7807 22.0019 88.1054 22.1711C88.2503 21.5728 88.3942 20.9755 88.538 20.3772C88.1779 20.4032 87.8196 20.4314 87.4605 20.464C86.3508 20.5586 86.3632 22.2745 87.4605 22.3879C88.5932 22.5035 90.067 22.8491 91.1249 22.1921C91.4614 21.9809 91.6501 21.7951 91.9014 21.4843C92.0783 21.2647 92.2645 21.0574 92.4537 20.8517C93.313 19.9209 92.2241 21.1248 92.2276 20.3877L93.518 19.5576C93.3884 19.4713 93.2603 19.3834 93.1317 19.2977C92.9869 19.895 92.844 20.4922 92.6981 21.0906C92.9918 21.2205 93.2835 21.3499 93.5757 21.4771L94.0093 19.6843C93.5483 19.624 93.0827 19.624 92.6218 19.6843C91.9679 19.7667 91.5639 20.4363 91.8812 21.1326C92.4444 22.3652 93.7264 22.8425 94.8622 23.1295C95.9388 23.406 96.3946 21.5507 95.3179 21.2747C94.6469 21.1038 93.7112 20.9213 93.3658 20.1632C93.1174 20.6437 92.873 21.1265 92.6242 21.6098C93.0852 21.5512 93.5507 21.5512 94.0117 21.6098C94.9129 21.7226 95.1071 20.2848 94.4443 19.8164C93.8688 19.4116 93.3727 19.2507 92.7001 19.1666C91.8127 19.0549 91.589 20.501 92.2685 20.9578L92.6538 21.2183C93.217 21.5988 93.9393 21.1094 93.9432 20.3871C93.9531 18.9145 93.0125 18.1154 91.8324 18.951C91.3436 19.2988 90.9381 19.8142 90.5558 20.2915C89.9605 21.0319 88.2508 20.5431 87.4629 20.4634V22.3874C87.822 22.3568 88.1812 22.3288 88.5405 22.3033C89.3372 22.243 89.7812 20.9811 88.9741 20.5099C88.6498 20.341 88.3405 20.1381 88.0502 19.9038C87.829 20.4911 87.6088 21.0762 87.391 21.6629C87.6934 21.7365 88.0015 21.7774 88.3109 21.7851C88.9406 21.8006 89.4043 20.9446 89.05 20.3357C88.8347 19.963 92.2621 18.5069 92.6735 18.2802C93.5929 17.772 92.9159 16.3209 92.0118 16.5216C91.6131 16.6095 91.2397 16.7069 90.8558 16.8672C90.0655 17.2001 90.0187 18.409 90.8558 18.7226C90.9342 18.7513 91.01 18.7806 91.0874 18.8077V16.9535C90.5316 17.1371 90.0581 17.3013 89.5723 17.6547C89.2195 17.9135 88.9707 18.5423 89.2653 18.9714C89.9748 20.0083 90.7164 20.0161 91.7486 19.4896C91.4018 18.9875 91.0549 18.4831 90.7095 17.9793C90.2538 18.4538 89.7712 18.8947 89.2648 19.2994L90.438 20.6161C90.606 20.198 90.7671 19.7982 90.978 19.4055C91.4318 18.5567 90.5444 17.6387 89.8039 18.0888C89.1934 18.4616 88.6179 18.8818 88.033 19.2994L89.0702 20.8096C89.4141 20.3219 89.7482 19.8369 90.0532 19.3176C90.4444 18.6512 89.7886 17.5895 89.084 17.9047C88.134 18.3305 87.2348 18.8382 86.3365 19.3834C86.6824 19.8889 87.0298 20.3938 87.3767 20.897C88.2562 20.0996 89.1466 19.3165 89.9955 18.4754C90.8258 17.6536 89.6082 16.2999 88.7824 17.1161" fill="#00A551"/>
<path d="M91.0918 22.2807C91.6151 22.9299 92.2507 23.1738 93.0095 23.306C93.0854 22.6761 93.1613 22.0457 93.2381 21.4158C93.0757 21.409 92.9167 21.3618 92.7725 21.2775C92.6952 21.9085 92.6208 22.5384 92.5449 23.1699C93.5983 23.1705 95.5608 23.3027 95.889 21.7509C96.2817 19.8956 95.0519 18.3831 93.6205 17.7339L93.3914 19.6235H93.5461C94.5557 19.6235 94.6562 18.0911 93.7737 17.7339C93.2618 17.526 92.7705 17.3307 92.2857 17.0531C92.1408 17.6493 91.9979 18.2476 91.8521 18.8465C92.332 18.8742 94.2679 19.4233 94.1083 20.2202C94.0161 20.6759 94.1738 21.0425 94.501 21.308C95.5707 22.169 96.6261 23.1583 97.9417 23.4802C98.9153 23.7191 99.4031 22.3404 98.6024 21.7216C98.4454 21.6014 98.2722 21.5101 98.0895 21.4512V23.306L98.629 23.1329C99.6889 22.7939 99.2366 20.9352 98.1723 21.2781C97.9934 21.3373 97.8131 21.3959 97.6323 21.4512C96.8015 21.7183 96.8316 23.0239 97.6323 23.306C97.6677 23.332 97.7027 23.358 97.7362 23.384C97.9565 22.7961 98.1777 22.211 98.3975 21.6243C97.242 21.3395 96.3063 20.4027 95.3677 19.6467L95.7609 20.7339C96.2398 18.3427 93.5959 17.026 91.8516 16.921C91.0105 16.8712 90.6646 18.2836 91.419 18.7149C92.0349 19.065 92.6715 19.326 93.3194 19.5892C93.3948 18.9588 93.4702 18.3295 93.5476 17.6979H93.3929C92.3596 17.6979 92.3123 19.2032 93.1652 19.5892C93.5284 19.754 94.8085 20.9734 93.9782 21.2007C93.5333 21.3234 93.0011 21.2477 92.5463 21.2444C91.5062 21.2438 91.4737 22.743 92.3177 23.1329C92.6153 23.2722 92.9213 23.306 93.2401 23.3408C94.198 23.4487 94.4202 21.6182 93.4677 21.4512C93.009 21.3705 92.6444 21.3406 92.3049 20.922C91.5619 19.9995 90.3522 21.3638 91.0938 22.2807" fill="#00A551"/>
<path d="M107.858 21.3033C107.121 21.7048 106.381 22.0937 105.655 22.5257C104.89 22.982 105.251 24.6296 106.088 24.5479C106.913 24.465 107.706 24.2387 108.52 24.0611L107.684 22.2514C106.649 23.404 104.651 23.1541 103.359 23.1566C102.408 23.1578 102.16 25.0391 103.129 25.2872C104.016 25.5123 104.812 25.4923 105.699 25.2872C106.518 25.0959 106.529 23.3735 105.699 23.1958C104.065 22.8436 102.463 23.0363 100.817 23.141C99.0519 23.2569 97.2816 22.8679 95.5163 22.8231C94.3923 22.7963 94.4347 24.8621 95.5163 24.9918C96.4962 25.1096 97.4169 25.1426 98.3869 24.9537C99.2079 24.7954 99.2158 23.0095 98.3869 22.863C96.5787 22.5401 93.7411 21.9591 92.2666 23.697C92.6131 23.6397 92.9602 23.5848 93.3082 23.5268C92.4596 23.0724 91.6964 22.5338 90.76 22.4908C90.1562 22.4628 89.6231 23.4589 90.019 24.1215C90.1942 24.4195 90.3715 24.7144 90.5452 25.0111C90.9382 24.5168 91.3296 24.0237 91.7206 23.5268C90.4445 22.6516 89.3619 21.6505 87.8528 21.7104C87.0186 21.7446 86.6537 23.1865 87.4194 23.7313C90.2377 25.7417 93.6014 26.8207 96.8383 26.7733C97.9491 26.7559 97.9421 24.6564 96.8383 24.6046C96.2494 24.5741 95.6639 24.5205 95.0745 24.4924C94.1168 24.4451 93.8902 26.3893 94.8474 26.6231C97.448 27.2589 100.015 26.9996 102.616 26.5128C103.596 26.3282 103.328 24.3809 102.388 24.3809H101.682V26.5495C102.778 26.5458 104.019 26.5969 105.013 25.9056C105.389 25.645 107.424 23.0624 107.592 23.1771C108.006 23.457 108.525 23.3105 108.767 22.7875C108.975 22.3393 109.198 21.913 109.384 21.4504H107.903C108.13 21.7808 108.306 22.153 108.431 22.5631C108.88 22.1249 109.331 21.6879 109.78 21.2497C109.188 20.329 108.508 19.834 107.64 19.4133C107.266 19.2325 106.869 19.5354 106.669 19.9113C106.516 20.1482 106.401 20.4063 106.316 20.6912C106.766 20.6182 107.215 20.544 107.664 20.4705C107.048 19.791 106.605 18.9669 105.905 18.4103C105.201 17.8524 104.224 18.9925 104.73 19.8933C104.914 20.2211 105.085 20.4898 105.305 20.7809C105.583 20.1781 105.862 19.5728 106.141 18.9694C105.313 18.7407 104.561 18.4115 103.709 18.3754C103.164 18.3498 102.716 19.0891 102.88 19.7461C102.974 20.165 103.091 20.574 103.232 20.9717L103.833 19.6352C103.617 19.7362 103.458 19.8459 103.279 20.026C102.977 20.3309 102.973 20.9486 103.144 21.3395C103.279 21.6256 103.397 21.9229 103.496 22.2309C103.819 21.6985 104.144 21.168 104.466 20.6369C103.489 20.4237 102.802 19.091 102.086 18.303C101.391 17.5394 100.644 17.1835 99.746 17.0376C98.7586 16.8793 98.6199 18.8398 99.5179 19.1677C100.698 19.599 101.87 19.7424 103.094 19.763C104.215 19.7835 104.183 17.699 103.094 17.5937C101.345 17.4254 100.991 18.7357 99.9321 20.137L101.398 20.9037C101.329 20.0734 102.67 19.6003 103.109 19.4077C104.198 18.9221 105.08 19.1496 106.095 19.8378C107.072 20.4985 107.939 18.626 106.963 17.9614C105.355 16.8718 104.003 16.7085 102.292 17.4709C101.121 17.9914 99.5258 19.0536 99.6808 20.9C99.7548 21.7808 100.583 22.4116 101.146 21.6661C101.787 20.8196 102.017 19.6545 103.095 19.758V17.5887C102.024 17.5712 101.007 17.4497 99.975 17.0725L99.7464 19.2032C101.525 19.4899 102.21 22.3325 104.012 22.724C104.784 22.891 105.307 22.0289 104.982 21.1288C104.883 20.8215 104.766 20.5245 104.63 20.2405C104.584 20.6768 104.54 21.115 104.496 21.5533C104.427 21.6094 104.361 21.6655 104.294 21.721C104.692 21.5377 105.078 20.9673 104.893 20.387C104.75 19.991 104.632 19.5814 104.541 19.162C104.264 19.6184 103.989 20.0778 103.711 20.5347C104.396 20.5659 105.027 20.8707 105.685 21.0515C106.518 21.2821 107.134 20.0485 106.521 19.24C106.419 19.0929 106.317 18.942 106.216 18.7911C105.823 19.2861 105.432 19.781 105.04 20.276C105.596 20.7155 105.961 21.456 106.451 21.9977C106.833 22.4179 107.552 22.4528 107.799 21.7783C107.884 21.4953 108.001 21.2347 108.153 20.9991C107.83 21.1674 107.506 21.3314 107.183 21.4997C107.79 21.792 108.162 22.1498 108.566 22.7757C109.216 23.7874 110.316 22.5014 109.914 21.4616C109.79 21.0549 109.611 20.6787 109.385 20.3502C109.034 19.7418 108.223 19.5591 107.904 20.3502C107.717 20.8121 107.496 21.2397 107.288 21.6879C107.678 21.5564 108.072 21.4286 108.463 21.2983C107.503 20.6457 106.739 20.8987 105.98 21.8544C105.45 22.5182 105.133 23.2233 104.503 23.7849C103.708 24.4912 102.611 24.3734 101.688 24.3759C100.582 24.3784 100.582 26.5446 101.688 26.5446H102.394L102.166 24.4151C99.8847 24.8415 97.5921 25.0809 95.311 24.5249C95.2335 25.2342 95.1579 25.9455 95.0804 26.6543C95.6698 26.6848 96.2548 26.7384 96.8443 26.7683V24.5997C93.909 24.6408 90.8488 23.6771 88.2907 21.8544C88.1475 22.5301 88.0024 23.2027 87.8583 23.8753C89.0282 23.8298 89.8832 24.725 90.8602 25.3969C91.5547 25.8732 92.5845 24.8384 92.0346 23.9121C91.8593 23.6141 91.6836 23.3186 91.5064 23.0207C91.2586 23.5655 91.0127 24.1097 90.7654 24.6526C91.376 24.6807 91.8993 25.1021 92.4458 25.3951C92.817 25.5939 93.1744 25.5914 93.4859 25.2261C94.3597 24.1976 96.8596 24.7586 97.9387 24.9487V22.858C97.1301 23.0113 96.3328 22.9141 95.5237 22.8181V24.9868C97.1133 25.026 98.6915 25.2835 100.282 25.3203C101.948 25.3602 103.587 24.9232 105.248 25.2822V23.1909C104.704 23.3623 104.135 23.3623 103.591 23.1909L103.363 25.3203C105.201 25.3178 107.442 25.4094 108.903 23.7787C109.613 22.9932 108.837 21.8008 108.069 21.9672C107.409 22.1074 106.764 22.3069 106.094 22.3736C106.238 23.0481 106.384 23.7188 106.528 24.3933C107.253 23.9632 107.994 23.5717 108.73 23.1722C109.744 22.6192 108.867 20.7516 107.864 21.3021" fill="#F6921E"/>
<path d="M96.8803 26.5883C97.9618 26.6492 99.0424 26.6492 100.124 26.5883C101.037 26.5347 101.353 24.8541 100.353 24.6976C99.1128 24.5041 97.8894 24.5881 96.6448 24.5959C96.7202 25.2274 96.7975 25.8551 96.8729 26.486C97.7652 26.3395 98.6073 26.2151 99.4366 25.7937C100.443 25.2805 99.5701 23.6248 98.5713 24.1347C97.9062 24.472 97.1306 24.5162 96.4166 24.6324C95.4415 24.7938 95.7012 26.5303 96.6443 26.5242C97.7229 26.5137 98.8246 26.3871 99.8978 26.5541C99.9726 25.9242 100.049 25.2949 100.124 24.6639C99.0439 24.7264 97.9613 24.7264 96.8808 24.6639C95.7746 24.6014 95.7805 26.5275 96.8808 26.5906" fill="#A87C4F"/>
<path d="M104.907 20.9913C103.509 21.4614 102.111 21.7428 100.652 21.8169C99.7348 21.8634 99.4268 23.5556 100.424 23.7071C100.694 23.7519 100.968 23.7634 101.241 23.7414C102.15 23.6723 102.478 22.0337 101.471 21.8534C101.406 21.8408 101.341 21.8288 101.276 21.8175C101.475 22.0404 101.676 22.2654 101.874 22.4911C101.852 22.8422 101.859 22.8455 101.892 22.501C101.878 22.354 101.858 22.2077 101.834 22.0625C101.643 20.8409 99.9929 21.3596 100.181 22.5723C100.106 22.0929 100.188 22.9025 100.222 23.002C100.373 23.4295 100.612 23.6352 101.014 23.7077C101.09 23.0772 101.167 22.4479 101.241 21.8175C101.12 21.8249 101 21.8369 100.88 21.8534C100.805 22.4822 100.729 23.1121 100.652 23.7414C102.25 23.6622 103.832 23.3611 105.363 22.845C106.42 22.4927 105.968 20.6346 104.907 20.9913" fill="#A87C4F"/>
<path d="M96.8212 17.984C98.2388 17.9796 99.6539 17.932 101.068 18.0498C100.992 17.4199 100.917 16.789 100.84 16.1602C100.296 16.3067 99.7376 16.278 99.1804 16.325C98.2353 16.403 97.9914 17.8989 98.9537 18.2146C99.4435 18.3766 99.987 18.4231 100.46 18.6465C100.527 18.0603 100.594 17.4736 100.664 16.8885C99.6933 17.2917 98.7162 17.6561 97.7155 17.9475C97.1109 18.1234 96.8562 19.0685 97.3371 19.5557C97.5514 19.773 97.7387 19.9876 97.9826 20.1689V18.5099C97.8643 18.5973 97.7465 18.6858 97.6288 18.7748C97.2011 19.0945 97.0109 19.8609 97.4548 20.2867C97.7091 20.5312 97.9224 20.7811 98.2176 20.9664L98.4226 19.2056C98.2067 19.3096 98.0402 19.4069 97.8673 19.5866C97.4869 19.9782 97.5445 20.8425 98.0402 21.0974C98.2294 21.1937 98.3989 21.2777 98.6009 21.3253C99.679 21.5769 100.138 19.7232 99.0572 19.471C99.0059 19.4589 98.9567 19.4467 98.9069 19.4362L99.0799 20.9459C99.0138 20.9846 98.9463 21.0239 98.8793 21.0621C99.5174 20.7623 99.7997 19.7492 99.0838 19.3018C98.9202 19.199 98.8098 19.0596 98.6679 18.9225C98.6088 19.4263 98.5541 19.9295 98.494 20.4322C98.6127 20.3465 98.73 20.258 98.8483 20.1684C99.3977 19.7581 99.4006 18.9169 98.8483 18.5038C98.7521 18.3963 98.6528 18.2923 98.5507 18.1919C98.423 18.7278 98.2974 19.2637 98.1708 19.8001C99.1715 19.5098 100.152 19.1431 101.119 18.7394C101.722 18.4911 102.083 17.3414 101.324 16.9825C100.699 16.6856 100.056 16.5683 99.409 16.3549C99.3336 16.9858 99.2558 17.6163 99.1799 18.245C99.8938 18.1875 100.596 18.2019 101.297 18.0122C102.282 17.7468 101.993 16.1989 101.068 16.1226C99.6534 16.0048 98.2383 16.0513 96.8207 16.0557C95.716 16.0634 95.716 17.9862 96.8207 17.984" fill="#A87C4F"/>
<path d="M103.022 18.2134C104.376 18.6951 105.65 19.3853 106.886 20.1694C107.105 19.5832 107.326 18.9965 107.546 18.4109C107.197 18.303 106.853 18.2842 106.493 18.2433C106.11 18.198 105.772 18.5723 105.666 18.9484C105.822 18.3838 106.41 18.407 106.002 18.4203C105.783 18.4208 105.562 18.3954 105.347 18.3738C104.962 18.3329 104.579 18.2582 104.193 18.2433C103.433 18.2129 103.074 19.3073 103.587 19.8857C103.984 20.3353 104.408 20.4675 104.959 20.4974C106.066 20.5632 106.059 18.6393 104.959 18.5734C104.907 18.5563 104.853 18.5408 104.8 18.5242C104.597 19.0711 104.397 19.6186 104.194 20.1678C105.134 20.2026 106.926 20.8806 107.32 19.4605C107.044 19.6972 106.77 19.9322 106.494 20.1678C106.695 20.1805 106.895 20.2142 107.092 20.2651C108.028 20.5543 108.605 19.0479 107.751 18.506C106.39 17.6422 104.971 16.8868 103.478 16.357C102.418 15.9832 101.97 17.8429 103.022 18.2134" fill="#A87C4F"/>
<path d="M107.834 21.7658C107.647 22.003 107.452 22.2247 107.236 22.4277C107.289 22.3868 107.272 22.3995 107.188 22.4686C107.137 22.509 107.086 22.5466 107.034 22.5853C106.981 22.622 106.927 22.6572 106.873 22.6909C106.887 22.6799 106.616 22.8331 106.738 22.775C106.308 22.9768 106.005 23.4038 106.139 23.959C106.251 24.4147 106.762 24.8344 107.194 24.6309C107.922 24.2886 108.522 23.7898 109.048 23.1262C109.358 22.7341 109.391 22.1518 109.048 21.7652C108.73 21.4129 108.144 21.3737 107.834 21.7652" fill="#A87C4F"/>
<path d="M89.8635 24.0716C90.3173 24.0722 90.7671 24.1408 91.2184 24.2055C91.6836 24.2702 92.0748 23.7172 92.0748 23.2432C92.0748 22.6676 91.6816 22.3463 91.2184 22.2799C90.7671 22.2174 90.3173 22.1527 89.8635 22.1477C89.3939 22.1433 89.0051 22.5901 89.0051 23.1116C89.0051 23.6392 89.3939 24.0672 89.8635 24.0716Z" fill="#A87C4F"/>
<path d="M93.5036 2.92186C90.8966 4.27451 89.8082 6.74148 91.0301 9.48771C91.7594 11.1263 92.9187 12.5375 93.8618 14.055C95.0651 15.9949 95.0419 17.7695 94.086 19.819C93.7135 20.6148 94.9029 21.3121 95.2774 20.5113C96.6285 17.6208 96.3427 15.344 94.6384 12.7029C92.8074 9.8643 89.9584 6.30626 94.2008 4.1064C94.9916 3.69607 94.2925 2.51153 93.5041 2.9202" fill="#E6E7E8"/>
<path d="M98.0258 22.1116C99.2527 20.5726 99.5336 19.0158 98.9073 17.1478C98.2214 15.1039 96.8674 13.4421 96.8453 11.2013C96.826 9.34597 97.7509 7.53819 98.3944 5.8388C99.0546 4.09296 99.3848 2.34601 99.0305 0.495649C98.8659 -0.372019 97.5375 -0.00482251 97.6987 0.86008C98.3318 4.19471 95.9884 7.09192 95.5366 10.2944C95.3272 11.7858 95.613 13.2447 96.2279 14.61C97.1946 16.7541 98.8024 18.9412 97.0483 21.1416C96.5023 21.8279 97.4725 22.8006 98.0258 22.1105" fill="#E6E7E8"/>
<path d="M102.28 19.9803C102.264 18.4734 102.065 17.0964 101.572 15.6702C101.34 15.0044 100.946 14.4204 100.731 13.7452C100.515 13.0688 100.944 12.2681 101.255 11.7046C102.299 9.81661 103.399 8.33621 102.277 6.18778C101.865 5.40141 100.675 6.09543 101.082 6.87849C102.177 8.97383 99.8749 10.6705 99.3975 12.6303C99.1501 13.6401 99.5074 14.5437 99.9488 15.439C100.662 16.8934 100.88 18.3755 100.896 19.9803C100.909 20.8646 102.29 20.8646 102.28 19.9803Z" fill="#E6E7E8"/>
<path d="M19.5391 37.1055H23.1523L23.582 39.8398C24.1289 38.8242 24.7539 38.0625 25.457 37.5547C26.1732 37.0469 26.9023 36.793 27.6445 36.793C29.0638 36.793 30.112 37.2292 30.7891 38.1016C31.4661 38.974 31.8047 40.2826 31.8047 42.0273C31.8047 42.2487 31.7852 42.5156 31.7461 42.8281C31.7201 43.1276 31.6745 43.4466 31.6094 43.7852C31.5573 44.1107 31.4857 44.4427 31.3945 44.7812C31.3164 45.1068 31.2318 45.4062 31.1406 45.6797H27.7031V43.1797C27.7031 42.6328 27.6641 42.1836 27.5859 41.832C27.5208 41.4805 27.4297 41.2005 27.3125 40.9922C27.1953 40.7708 27.0586 40.6211 26.9023 40.543C26.7461 40.4518 26.5768 40.4062 26.3945 40.4062C26.0039 40.4062 25.6393 40.5365 25.3008 40.7969C24.9753 41.0443 24.7018 41.3958 24.4805 41.8516V64H19.5391V37.1055ZM41.4141 64.293C40.2552 64.293 39.2266 64.0781 38.3281 63.6484C37.4427 63.2188 36.694 62.5482 36.082 61.6367C35.4701 60.7253 35.0078 59.5599 34.6953 58.1406C34.3828 56.7083 34.2266 54.9896 34.2266 52.9844V47.9062C34.2266 46.2005 34.3503 44.7422 34.5977 43.5312C34.8581 42.3073 35.1901 41.2852 35.5938 40.4648C36.0104 39.6315 36.4857 38.974 37.0195 38.4922C37.5664 38.0104 38.1263 37.6458 38.6992 37.3984C39.2721 37.138 39.8385 36.9753 40.3984 36.9102C40.9714 36.832 41.4987 36.793 41.9805 36.793C42.8659 36.793 43.7188 36.9297 44.5391 37.2031C45.3594 37.4635 46.082 37.9193 46.707 38.5703C47.332 39.2083 47.8268 40.0677 48.1914 41.1484C48.569 42.2292 48.7578 43.5768 48.7578 45.1914C48.7578 45.7383 48.7383 46.2917 48.6992 46.8516C48.6732 47.4115 48.6341 47.9648 48.582 48.5117C48.5299 49.0456 48.4583 49.5664 48.3672 50.0742C48.2891 50.582 48.2044 51.0508 48.1133 51.4805H39.1875V54.2148C39.1875 55.3867 39.2331 56.3763 39.3242 57.1836C39.4154 57.9779 39.5651 58.6224 39.7734 59.1172C39.9948 59.599 40.2878 59.9505 40.6523 60.1719C41.0299 60.3802 41.4987 60.4844 42.0586 60.4844C42.3581 60.4844 42.651 60.4258 42.9375 60.3086C43.224 60.1784 43.4714 59.9701 43.6797 59.6836C43.901 59.3971 44.0768 59.0195 44.207 58.5508C44.3372 58.069 44.4023 57.4766 44.4023 56.7734V55.9336H48.5234V56.9688C48.5234 59.5208 47.9115 61.3828 46.6875 62.5547C45.4766 63.7135 43.7188 64.293 41.4141 64.293ZM44.1484 48.1602C44.1615 48.0169 44.1745 47.8281 44.1875 47.5938C44.2005 47.3464 44.207 47.0924 44.207 46.832C44.2201 46.5716 44.2266 46.3177 44.2266 46.0703C44.2266 45.8099 44.2266 45.5885 44.2266 45.4062C44.2266 43.6354 44.0182 42.3594 43.6016 41.5781C43.1849 40.7969 42.5664 40.4062 41.7461 40.4062C41.3164 40.4062 40.9388 40.5104 40.6133 40.7188C40.2878 40.9141 40.0208 41.2526 39.8125 41.7344C39.6042 42.2031 39.4479 42.8281 39.3438 43.6094C39.2396 44.3906 39.1875 45.3607 39.1875 46.5195V48.1602H44.1484ZM59.207 64.293C56.9414 64.293 55.2096 63.362 54.0117 61.5C52.8268 59.638 52.2344 56.7995 52.2344 52.9844V47.9062C52.2344 46.2005 52.3581 44.7422 52.6055 43.5312C52.8529 42.3073 53.1784 41.2852 53.582 40.4648C53.9987 39.6315 54.4674 38.974 54.9883 38.4922C55.5221 38.0104 56.069 37.6458 56.6289 37.3984C57.1888 37.138 57.7422 36.9753 58.2891 36.9102C58.8359 36.832 59.3372 36.793 59.793 36.793C60.7044 36.793 61.5378 36.9167 62.293 37.1641C63.0482 37.3984 63.6992 37.763 64.2461 38.2578C64.793 38.7396 65.2161 39.3516 65.5156 40.0938C65.8151 40.8359 65.9648 41.7083 65.9648 42.7109C65.9648 43.3359 65.9323 43.8763 65.8672 44.332C65.8151 44.7747 65.737 45.2044 65.6328 45.6211H61.6875V44.7227C61.6875 43.3685 61.5247 42.3138 61.1992 41.5586C60.8867 40.7904 60.3659 40.4062 59.6367 40.4062C59.2331 40.4062 58.8815 40.5039 58.582 40.6992C58.2826 40.8815 58.0286 41.2005 57.8203 41.6562C57.625 42.112 57.4753 42.724 57.3711 43.4922C57.2799 44.2604 57.2344 45.224 57.2344 46.3828V54.0195C57.2344 55.1914 57.2734 56.1875 57.3516 57.0078C57.4297 57.8281 57.5664 58.4987 57.7617 59.0195C57.957 59.5273 58.2174 59.8984 58.543 60.1328C58.8685 60.3672 59.2721 60.4844 59.7539 60.4844C60.0013 60.4844 60.2422 60.4258 60.4766 60.3086C60.7109 60.1784 60.9128 59.9701 61.082 59.6836C61.2643 59.3971 61.4076 59.0195 61.5117 58.5508C61.6289 58.069 61.6875 57.4766 61.6875 56.7734V55.9336H65.9453V56.9688C65.9453 59.5208 65.3789 61.3828 64.2461 62.5547C63.1263 63.7135 61.4466 64.293 59.207 64.293ZM72.6055 33.2578C71.694 33.2578 70.9714 32.9844 70.4375 32.4375C69.9167 31.8906 69.6562 31.0898 69.6562 30.0352C69.6562 29.4492 69.7214 28.9609 69.8516 28.5703C69.9948 28.1667 70.1901 27.8477 70.4375 27.6133C70.6979 27.3659 71.0104 27.1901 71.375 27.0859C71.7396 26.9688 72.1562 26.9102 72.625 26.9102C73.6016 26.9102 74.3438 27.1576 74.8516 27.6523C75.3594 28.1471 75.6133 28.9414 75.6133 30.0352C75.6133 31.0508 75.3529 31.8451 74.832 32.418C74.3242 32.9779 73.582 33.2578 72.6055 33.2578ZM70.0469 37.1055H74.9883V64H70.0469V37.1055ZM85.1055 65.5234V72.6914H80.1641V37.1055H84.0312L84.4805 39.9375C84.7018 39.5729 84.9622 39.2018 85.2617 38.8242C85.5742 38.4466 85.9323 38.1146 86.3359 37.8281C86.7526 37.5286 87.2148 37.2878 87.7227 37.1055C88.2435 36.9102 88.8229 36.8125 89.4609 36.8125C89.7344 36.8125 90.0599 36.8385 90.4375 36.8906C90.8281 36.9427 91.2253 37.0729 91.6289 37.2812C92.0456 37.4896 92.4557 37.8021 92.8594 38.2188C93.276 38.6224 93.6406 39.1823 93.9531 39.8984C94.2786 40.6146 94.5391 41.5065 94.7344 42.5742C94.9427 43.6419 95.0469 44.9375 95.0469 46.4609V54.6055C95.0469 56.1289 94.9427 57.4245 94.7344 58.4922C94.5391 59.5599 94.2786 60.4518 93.9531 61.168C93.6276 61.8841 93.2565 62.4505 92.8398 62.8672C92.4232 63.2839 92 63.5964 91.5703 63.8047C91.1406 64.013 90.724 64.1432 90.3203 64.1953C89.9167 64.2604 89.5651 64.293 89.2656 64.293C88.224 64.293 87.3516 64.0911 86.6484 63.6875C85.9583 63.2839 85.3919 62.7956 84.9492 62.2227L85.1055 65.5234ZM85.1055 58.5117C85.2096 58.7721 85.3333 59.0195 85.4766 59.2539C85.6328 59.4883 85.8086 59.6966 86.0039 59.8789C86.2122 60.0612 86.4401 60.2109 86.6875 60.3281C86.9479 60.4323 87.2474 60.4844 87.5859 60.4844C87.9505 60.4844 88.2826 60.4193 88.582 60.2891C88.8815 60.1458 89.1419 59.8984 89.3633 59.5469C89.5846 59.1823 89.7539 58.681 89.8711 58.043C90.0013 57.4049 90.0664 56.5846 90.0664 55.582V45.2891C90.0664 44.2865 90.0013 43.4727 89.8711 42.8477C89.7539 42.2096 89.5846 41.7083 89.3633 41.3438C89.1549 40.9792 88.901 40.7318 88.6016 40.6016C88.3021 40.4714 87.9701 40.4062 87.6055 40.4062C86.9805 40.4062 86.4661 40.5951 86.0625 40.9727C85.6719 41.3372 85.3529 41.7669 85.1055 42.2617V58.5117ZM105.984 64.293C104.826 64.293 103.797 64.0781 102.898 63.6484C102.013 63.2188 101.264 62.5482 100.652 61.6367C100.04 60.7253 99.5781 59.5599 99.2656 58.1406C98.9531 56.7083 98.7969 54.9896 98.7969 52.9844V47.9062C98.7969 46.2005 98.9206 44.7422 99.168 43.5312C99.4284 42.3073 99.7604 41.2852 100.164 40.4648C100.581 39.6315 101.056 38.974 101.59 38.4922C102.137 38.0104 102.697 37.6458 103.27 37.3984C103.842 37.138 104.409 36.9753 104.969 36.9102C105.542 36.832 106.069 36.793 106.551 36.793C107.436 36.793 108.289 36.9297 109.109 37.2031C109.93 37.4635 110.652 37.9193 111.277 38.5703C111.902 39.2083 112.397 40.0677 112.762 41.1484C113.139 42.2292 113.328 43.5768 113.328 45.1914C113.328 45.7383 113.309 46.2917 113.27 46.8516C113.243 47.4115 113.204 47.9648 113.152 48.5117C113.1 49.0456 113.029 49.5664 112.938 50.0742C112.859 50.582 112.775 51.0508 112.684 51.4805H103.758V54.2148C103.758 55.3867 103.803 56.3763 103.895 57.1836C103.986 57.9779 104.135 58.6224 104.344 59.1172C104.565 59.599 104.858 59.9505 105.223 60.1719C105.6 60.3802 106.069 60.4844 106.629 60.4844C106.928 60.4844 107.221 60.4258 107.508 60.3086C107.794 60.1784 108.042 59.9701 108.25 59.6836C108.471 59.3971 108.647 59.0195 108.777 58.5508C108.908 58.069 108.973 57.4766 108.973 56.7734V55.9336H113.094V56.9688C113.094 59.5208 112.482 61.3828 111.258 62.5547C110.047 63.7135 108.289 64.293 105.984 64.293ZM108.719 48.1602C108.732 48.0169 108.745 47.8281 108.758 47.5938C108.771 47.3464 108.777 47.0924 108.777 46.832C108.79 46.5716 108.797 46.3177 108.797 46.0703C108.797 45.8099 108.797 45.5885 108.797 45.4062C108.797 43.6354 108.589 42.3594 108.172 41.5781C107.755 40.7969 107.137 40.4062 106.316 40.4062C105.887 40.4062 105.509 40.5104 105.184 40.7188C104.858 40.9141 104.591 41.2526 104.383 41.7344C104.174 42.2031 104.018 42.8281 103.914 43.6094C103.81 44.3906 103.758 45.3607 103.758 46.5195V48.1602H108.719ZM117.508 28.4727H122.449V35.6406L122.293 39.1953L122.312 39.2148C122.534 38.9023 122.788 38.6029 123.074 38.3164C123.374 38.0299 123.706 37.776 124.07 37.5547C124.448 37.3203 124.858 37.138 125.301 37.0078C125.757 36.8776 126.251 36.8125 126.785 36.8125C127.059 36.8125 127.384 36.8385 127.762 36.8906C128.152 36.9427 128.549 37.0729 128.953 37.2812C129.37 37.4896 129.78 37.8021 130.184 38.2188C130.6 38.6224 130.965 39.1823 131.277 39.8984C131.603 40.6146 131.863 41.5065 132.059 42.5742C132.267 43.6419 132.371 44.9375 132.371 46.4609V54.6055C132.371 56.1289 132.267 57.4245 132.059 58.4922C131.863 59.5599 131.603 60.4583 131.277 61.1875C130.952 61.9036 130.581 62.4701 130.164 62.8867C129.747 63.3034 129.324 63.6159 128.895 63.8242C128.465 64.0326 128.048 64.1628 127.645 64.2148C127.241 64.2799 126.889 64.3125 126.59 64.3125C125.965 64.3125 125.398 64.2344 124.891 64.0781C124.396 63.9219 123.953 63.7135 123.562 63.4531C123.185 63.1797 122.846 62.8737 122.547 62.5352C122.26 62.1966 122.007 61.8516 121.785 61.5L121.375 64H117.508V28.4727ZM122.449 58.5508C122.553 58.7982 122.677 59.0391 122.82 59.2734C122.977 59.5078 123.152 59.7161 123.348 59.8984C123.543 60.0677 123.771 60.2109 124.031 60.3281C124.292 60.4323 124.585 60.4844 124.91 60.4844C125.275 60.4844 125.607 60.4193 125.906 60.2891C126.206 60.1458 126.466 59.8984 126.688 59.5469C126.909 59.1823 127.078 58.681 127.195 58.043C127.326 57.4049 127.391 56.5846 127.391 55.582V45.2891C127.391 44.2865 127.326 43.4727 127.195 42.8477C127.078 42.2096 126.909 41.7083 126.688 41.3438C126.479 40.9792 126.225 40.7318 125.926 40.6016C125.626 40.4714 125.294 40.4062 124.93 40.4062C124.318 40.4062 123.81 40.5885 123.406 40.9531C123.016 41.3047 122.697 41.7279 122.449 42.2227V58.5508ZM143.621 64.293C143.048 64.293 142.462 64.2474 141.863 64.1562C141.277 64.0651 140.704 63.8763 140.145 63.5898C139.598 63.3034 139.077 62.8932 138.582 62.3594C138.1 61.8255 137.677 61.1224 137.312 60.25C136.948 59.3776 136.661 58.3034 136.453 57.0273C136.245 55.7513 136.141 54.2279 136.141 52.457V48.2383C136.141 46.4935 136.245 45.0026 136.453 43.7656C136.674 42.5156 136.967 41.4674 137.332 40.6211C137.71 39.7747 138.146 39.1042 138.641 38.6094C139.135 38.1016 139.656 37.7174 140.203 37.457C140.763 37.1836 141.336 37.0078 141.922 36.9297C142.508 36.8385 143.081 36.793 143.641 36.793C144.174 36.793 144.728 36.832 145.301 36.9102C145.874 36.9883 146.434 37.1576 146.98 37.418C147.527 37.6654 148.042 38.043 148.523 38.5508C149.018 39.0456 149.448 39.7161 149.812 40.5625C150.19 41.4089 150.483 42.4635 150.691 43.7266C150.913 44.9766 151.023 46.4805 151.023 48.2383V52.457C151.023 54.2018 150.913 55.7057 150.691 56.9688C150.47 58.2318 150.171 59.2995 149.793 60.1719C149.415 61.0443 148.979 61.7539 148.484 62.3008C147.99 62.8346 147.469 63.2513 146.922 63.5508C146.375 63.8503 145.815 64.0456 145.242 64.1367C144.682 64.2409 144.142 64.293 143.621 64.293ZM143.66 60.4844C144.103 60.4844 144.474 60.3737 144.773 60.1523C145.086 59.918 145.333 59.5404 145.516 59.0195C145.711 58.4987 145.848 57.8151 145.926 56.9688C146.017 56.1094 146.062 55.0482 146.062 53.7852V47.1641C146.062 45.901 146.017 44.8398 145.926 43.9805C145.848 43.1211 145.711 42.431 145.516 41.9102C145.333 41.3763 145.086 40.9922 144.773 40.7578C144.474 40.5234 144.103 40.4062 143.66 40.4062C143.191 40.4062 142.794 40.5234 142.469 40.7578C142.156 40.9922 141.896 41.3763 141.688 41.9102C141.479 42.431 141.329 43.1211 141.238 43.9805C141.147 44.8398 141.102 45.901 141.102 47.1641V53.7852C141.102 55.0482 141.147 56.1094 141.238 56.9688C141.329 57.8151 141.479 58.4987 141.688 59.0195C141.896 59.5404 142.156 59.918 142.469 60.1523C142.794 60.3737 143.191 60.4844 143.66 60.4844ZM158.934 50.3477L153.621 37.1055H158.68L161.551 45.9141H161.59L164.637 37.1055H169.363L164.266 49.8789L169.988 64H164.93L161.609 54.7227H161.453L158.094 64H153.348L158.934 50.3477Z" fill="#716868"/>
<path d="M120.121 24.0872C120.121 24.0872 123.222 23.9917 123.862 22.2598C124.276 21.1382 123.626 17.9753 123.626 16.0128C123.626 15.3487 123.174 15.0038 122.302 15.0038H116.683C116.247 15.0038 115.392 14.8863 115.392 15.9568C115.392 17.8779 114.708 21.0427 115.147 22.1522C115.874 23.9917 118.958 24.0872 118.958 24.0872V25.4878C118.958 25.4878 117.182 26.5371 116.827 26.7807C116.446 27.0327 116.699 27.4363 116.852 27.5058C117.106 27.6215 117.725 28 119.48 28C121.279 28 121.884 27.5901 122.102 27.5058C122.186 27.4735 122.624 27.0878 122.106 26.7331C121.184 26.1017 120.121 25.4878 120.121 25.4878V24.0872Z" fill="#8899A6"/>
<path d="M116.006 15.2985C116.796 19.7371 115.071 21.6447 116.812 22.3848C118.914 23.2777 120.118 23.1291 122.02 22.3848C123.761 21.7036 122.6 19.1727 122.842 15.4737C122.905 14.522 116.006 15.2985 116.006 15.2985V15.2985Z" fill="#CCD6DD"/>
<path d="M116.285 18.0194C116.254 18.531 115.869 20.9151 116.047 21.4645C116.238 22.0551 116.715 23 119.453 23C121.459 23 122.732 22.2521 122.939 21.3072C123.119 20.4851 122.844 18.6695 122.812 18" fill="#F4900C"/>
<path d="M119.5 19C121.433 19 123 18.7761 123 18.5C123 18.2239 121.433 18 119.5 18C117.567 18 116 18.2239 116 18.5C116 18.7761 117.567 19 119.5 19Z" fill="#FFCC4D"/>
<path d="M122.284 14C122.284 14 120.142 20.2026 120.03 20.4871C119.894 20.8349 120.247 21.3227 120.562 20.7024C120.876 20.0822 123 14.5948 123 14.5948L122.284 14Z" fill="#C1694F"/>
<path d="M120.516 18L120 19C120.545 18.987 121.13 18.9449 121.628 18.888L122 18.2597C121.518 18.2668 121.034 18.1846 120.516 18V18Z" fill="#FFAC33"/>
<path d="M120.045 20.5221C119.84 20.8462 120.372 21.3006 120.845 20.7228C121.002 20.5308 121.46 19.8383 122 19C121.679 19.027 121.263 19.0503 120.87 19.0669C120.6 19.5535 120.325 20.0386 120.045 20.5221V20.5221Z" fill="#CC6F00"/>
</svg>
