<svg width="400" height="264" viewBox="0 0 400 264" fill="none" xmlns="http://www.w3.org/2000/svg">
<path d="M214.663 90.4856C214.663 95.3731 205.785 99.3397 194.832 99.3397C183.881 99.3397 175 95.3731 175 90.4856C175 85.5914 183.881 81.6277 194.832 81.6277C205.785 81.6277 214.663 85.5914 214.663 90.4856" fill="#A6A8AB"/>
<path d="M208.169 100.679C219.122 100.679 228 96.7144 228 91.8244C228 86.9344 219.122 82.9702 208.169 82.9702C197.217 82.9702 188.339 86.9344 188.339 91.8244C188.339 96.7144 197.217 100.679 208.169 100.679Z" fill="#A6A8AB"/>
<path d="M202.824 97.4009C194.541 97.4009 187.114 95.3091 182.081 92C182.03 92.4467 182 92.8982 182 93.3564C182 101.996 191.178 109 202.499 109C213.822 109 223 101.995 223 93.3564C223 93.0268 222.984 92.703 222.955 92.3801C217.945 95.4673 210.778 97.4009 202.822 97.4009" fill="#D0D2D3"/>
<path d="M192.227 96.2026C188.298 95.2634 184.826 93.8174 182.08 92C182.03 92.4467 182 92.8982 182 93.3564C182 101.996 191.126 109 202.381 109C203.269 109 204.141 108.95 205 108.867C198.165 106.802 193.137 101.993 192.227 96.2026" fill="#B6B6B7"/>
<path d="M225 86.5047C225 92.3017 214.7 97 202.001 97C189.298 97 179 92.2951 179 86.5047C179 80.7059 189.298 76 202.001 76C214.7 76 225 80.7021 225 86.5047Z" fill="#D0D2D3"/>
<path d="M201.5 95C212.27 95 221 90.9706 221 86C221 81.0294 212.27 77 201.5 77C190.73 77 182 81.0294 182 86C182 90.9706 190.73 95 201.5 95Z" fill="#A6A8AB"/>
<path d="M186.461 78.851C185.025 80.2708 183.52 81.5861 182.031 82.9341C180.706 84.1292 182.398 86.3255 183.788 85.4781C185.084 84.6922 186.37 83.9213 187.742 83.3116C187.196 82.5155 186.648 81.7222 186.103 80.9261C185.744 81.5784 185.341 82.1994 184.898 82.784C183.944 84.1283 185.159 86.4019 186.655 85.3299C187.644 84.6233 188.618 83.9166 189.65 83.2902L187.668 81.0743C187.314 81.7362 187.038 82.4083 186.755 83.114C186.226 84.4228 187.427 86.3889 188.737 85.3317C189.801 84.476 190.808 83.6034 191.765 82.5985C193.052 81.2571 191.426 79.3358 190.01 80.0526C189.93 80.1496 189.856 80.2465 189.779 80.3444C189.606 81.0855 189.432 81.8248 189.26 82.5621C189.832 82.1568 190.464 81.8665 191.126 81.7045C192.548 81.244 192.471 79.0794 191.126 78.5788C190.995 78.5294 190.866 78.48 190.736 78.4325V81.56C191.382 81.2869 192.014 81.1265 192.692 80.9774C192.318 79.9883 191.947 78.9983 191.574 78.012C189.224 79.3115 181.778 81.3922 184.412 85.9172C184.827 85.0996 185.245 84.2895 185.663 83.4748C185.401 83.4459 185.139 83.417 184.877 83.3862C183.263 83.004 182.353 85.3383 183.76 86.3525C184.252 86.7468 184.772 87.089 185.321 87.3742C185.566 86.3656 185.809 85.3588 186.052 84.3501C185.443 84.3939 184.838 84.4415 184.231 84.4965C182.355 84.6559 182.376 87.5485 184.231 87.7397C186.146 87.9345 188.637 88.5171 190.425 87.4096C190.994 87.0535 191.313 86.7403 191.738 86.2164C192.037 85.8463 192.352 85.4968 192.672 85.15C194.124 83.5811 192.284 85.6105 192.289 84.3678L194.471 82.9686C194.252 82.8232 194.035 82.6749 193.818 82.5305C193.573 83.5372 193.331 84.544 193.085 85.5527C193.581 85.7718 194.074 85.9899 194.568 86.2043L195.301 83.1821C194.522 83.0805 193.735 83.0805 192.956 83.1821C191.85 83.321 191.167 84.4499 191.704 85.6235C192.656 87.7014 194.823 88.5059 196.743 88.9897C198.563 89.4559 199.334 86.3283 197.514 85.8631C196.379 85.5751 194.797 85.2674 194.213 83.9894C193.794 84.7995 193.381 85.6133 192.96 86.428C193.739 86.3292 194.526 86.3292 195.305 86.428C196.829 86.6182 197.157 84.1944 196.037 83.4049C195.064 82.7225 194.225 82.4512 193.088 82.3095C191.588 82.1212 191.21 84.5589 192.359 85.3289L193.01 85.768C193.962 86.4094 195.183 85.5844 195.19 84.3669C195.206 81.8844 193.616 80.5374 191.621 81.946C190.795 82.5323 190.11 83.4011 189.463 84.2056C188.457 85.4539 185.567 84.6298 184.235 84.4956V87.7387C184.842 87.6872 185.449 87.64 186.056 87.597C187.403 87.4954 188.154 85.3681 186.789 84.5739C186.241 84.2892 185.718 83.9471 185.228 83.5522C184.854 84.5422 184.481 85.5284 184.113 86.5175C184.625 86.6416 185.145 86.7106 185.668 86.7235C186.733 86.7496 187.517 85.3066 186.918 84.2802C186.554 83.6519 192.348 81.1974 193.043 80.8152C194.597 79.9585 193.453 77.5124 191.925 77.8507C191.251 77.999 190.619 78.163 189.97 78.4334C188.634 78.9946 188.555 81.0324 189.97 81.561C190.103 81.6094 190.231 81.6588 190.362 81.7045V78.5788C189.422 78.8883 188.622 79.1652 187.801 79.7609C187.204 80.1971 186.784 81.2571 187.282 81.9804C188.481 83.7283 189.735 83.7414 191.48 82.8539C190.893 82.0075 190.307 81.1573 189.723 80.3081C188.953 81.1079 188.137 81.8512 187.281 82.5332L189.264 84.7528C189.548 84.0481 189.821 83.3741 190.177 82.7122C190.944 81.2813 189.444 79.7338 188.192 80.4926C187.16 81.1209 186.187 81.8294 185.199 82.5332L186.952 85.0791C187.533 84.2569 188.098 83.4394 188.614 82.564C189.275 81.4407 188.166 79.6508 186.975 80.1822C185.369 80.9 183.849 81.7558 182.331 82.6749C182.915 83.527 183.503 84.3781 184.089 85.2264C185.576 83.8822 187.081 82.5621 188.516 81.1443C189.92 79.759 187.861 77.4769 186.465 78.8529" fill="#00A551"/>
<path d="M190.369 87.5589C191.254 88.6533 192.329 89.0644 193.611 89.2872C193.74 88.2254 193.868 87.1627 193.998 86.1009C193.723 86.0895 193.454 86.0099 193.211 85.8679C193.08 86.9315 192.954 87.9933 192.826 89.0579C194.607 89.0588 197.924 89.2816 198.479 86.6658C199.143 83.5383 197.064 80.9887 194.644 79.8942L194.257 83.0796H194.518C196.225 83.0796 196.395 80.4965 194.903 79.8942C194.038 79.5437 193.207 79.2147 192.388 78.7467C192.143 79.7516 191.901 80.7603 191.655 81.7699C192.466 81.8165 195.739 82.7421 195.469 84.0855C195.313 84.8536 195.579 85.4717 196.133 85.9191C197.941 87.3706 199.725 89.0383 201.949 89.5809C203.595 89.9836 204.419 87.6596 203.066 86.6164C202.8 86.4138 202.508 86.2599 202.199 86.1606V89.2872L203.111 88.9954C204.903 88.424 204.138 85.2908 202.339 85.8688C202.036 85.9685 201.732 86.0673 201.426 86.1606C200.022 86.6108 200.072 88.8118 201.426 89.2872C201.486 89.331 201.545 89.3748 201.602 89.4186C201.974 88.4277 202.348 87.4414 202.719 86.4524C200.766 85.9723 199.184 84.3931 197.598 83.1188L198.262 84.9515C199.072 80.9206 194.602 78.701 191.654 78.5239C190.232 78.44 189.647 80.8209 190.923 81.548C191.964 82.1381 193.04 82.5781 194.135 83.0218C194.263 81.9591 194.39 80.8982 194.521 79.8336H194.259C192.513 79.8336 192.433 82.3711 193.874 83.0218C194.488 83.2996 196.652 85.3551 195.249 85.7383C194.497 85.9452 193.597 85.8175 192.828 85.8119C191.07 85.811 191.015 88.3382 192.442 88.9954C192.945 89.2303 193.462 89.2872 194.001 89.3459C195.62 89.5277 195.996 86.4421 194.386 86.1606C193.61 86.0245 192.994 85.9741 192.42 85.2684C191.164 83.7135 189.119 86.0133 190.373 87.5589" fill="#00A551"/>
<path d="M219.275 85.8853C217.992 86.5276 216.706 87.15 215.443 87.8412C214.114 88.5712 214.741 91.2073 216.196 91.0767C217.632 90.944 219.01 90.582 220.426 90.2977L218.973 87.4023C217.173 89.2465 213.698 88.8465 211.45 88.8505C209.796 88.8525 209.365 91.8626 211.05 92.2596C212.593 92.6196 213.977 92.5877 215.521 92.2596C216.945 91.9534 216.963 89.1976 215.521 88.9133C212.678 88.3498 209.892 88.658 207.03 88.8256C203.96 89.0111 200.881 88.3887 197.811 88.3169C195.856 88.274 195.93 91.5793 197.811 91.7868C199.515 91.9753 201.116 92.0282 202.803 91.726C204.231 91.4726 204.245 88.6151 202.803 88.3807C199.659 87.8641 194.724 86.9345 192.159 89.7152C192.762 89.6235 193.366 89.5357 193.971 89.443C192.495 88.7159 191.168 87.8541 189.539 87.7853C188.489 87.7404 187.562 89.3342 188.25 90.3945C188.555 90.8712 188.863 91.343 189.166 91.8177C189.849 91.0268 190.53 90.2379 191.21 89.443C188.99 88.0426 187.108 86.4408 184.483 86.5366C183.032 86.5914 182.398 88.8984 183.729 89.7701C188.631 92.9867 194.481 94.7131 200.11 94.6373C202.042 94.6094 202.03 91.2502 200.11 91.1674C199.086 91.1186 198.068 91.0328 197.043 90.9879C195.377 90.9121 194.983 94.0229 196.648 94.397C201.17 95.4143 205.634 94.9994 210.158 94.2204C211.863 93.9252 211.397 90.8094 209.763 90.8094H208.534V94.2793C210.44 94.2733 212.598 94.3551 214.327 93.249C214.981 92.8321 218.52 88.6999 218.812 88.8834C219.532 89.3312 220.435 89.0969 220.856 88.2601C221.217 87.5429 221.606 86.8607 221.928 86.1207H219.352C219.748 86.6493 220.055 87.2447 220.271 87.901C221.052 87.1998 221.836 86.5007 222.617 85.7995C221.587 84.3264 220.405 83.5345 218.896 82.8612C218.245 82.572 217.555 83.0567 217.207 83.6581C216.942 84.0371 216.741 84.4501 216.593 84.9059C217.376 84.7892 218.156 84.6705 218.938 84.5528C217.866 83.4656 217.095 82.1471 215.879 81.2564C214.654 80.3638 212.955 82.188 213.835 83.6292C214.154 84.1538 214.452 84.5837 214.836 85.0495C215.319 84.085 215.803 83.1166 216.289 82.1511C214.849 81.785 213.541 81.2584 212.058 81.2006C211.11 81.1597 210.333 82.3426 210.618 83.3938C210.781 84.0641 210.985 84.7183 211.23 85.3547L212.275 83.2163C211.899 83.3779 211.622 83.5534 211.311 83.8416C210.786 84.3294 210.779 85.3178 211.076 85.9431C211.311 86.4009 211.516 86.8767 211.689 87.3694C212.251 86.5176 212.816 85.6689 213.375 84.8191C211.676 84.478 210.481 82.3456 209.237 81.0849C208.027 79.8631 206.729 79.2936 205.167 79.0602C203.45 78.8069 203.209 81.9436 204.77 82.4683C206.823 83.1584 208.86 83.3878 210.99 83.4208C212.939 83.4537 212.884 80.1184 210.99 79.9499C207.948 79.6806 207.332 81.7771 205.491 84.0192L208.04 85.246C207.919 83.9174 210.252 83.1604 211.015 82.8522C212.91 82.0753 214.444 82.4393 216.209 83.5404C217.908 84.5977 219.415 81.6015 217.718 80.5383C214.921 78.7949 212.57 78.5336 209.595 79.7534C207.559 80.5862 204.784 82.2857 205.054 85.24C205.182 86.6493 206.623 87.6586 207.603 86.4658C208.717 85.1113 209.117 83.2472 210.991 83.4128V79.9419C209.128 79.914 207.36 79.7195 205.565 79.116L205.168 82.5251C208.26 82.9839 209.452 87.532 212.586 88.1583C213.929 88.4256 214.838 87.0462 214.273 85.606C214.101 85.1144 213.897 84.6392 213.661 84.1847C213.581 84.8829 213.504 85.5841 213.428 86.2852C213.307 86.375 213.192 86.4648 213.077 86.5535C213.769 86.2603 214.441 85.3477 214.118 84.4191C213.87 83.7856 213.665 83.1303 213.506 82.4593C213.024 83.1894 212.546 83.9244 212.063 84.6555C213.253 84.7054 214.351 85.1931 215.496 85.4823C216.945 85.8514 218.016 83.8776 216.949 82.5839C216.772 82.3486 216.596 82.1072 216.42 81.8658C215.735 82.6578 215.056 83.4497 214.374 84.2416C215.341 84.9448 215.976 86.1296 216.828 86.9964C217.492 87.6686 218.743 87.7245 219.172 86.6453C219.32 86.1925 219.524 85.7756 219.788 85.3986C219.226 85.6679 218.662 85.9302 218.101 86.1995C219.156 86.6672 219.803 87.2397 220.506 88.2411C221.637 89.8599 223.55 87.8023 222.85 86.1386C222.635 85.4879 222.324 84.886 221.931 84.3603C221.32 83.3868 219.91 83.0946 219.355 84.3603C219.03 85.0993 218.646 85.7836 218.283 86.5007C218.963 86.2902 219.647 86.0858 220.328 85.8773C218.657 84.833 217.328 85.238 216.009 86.767C215.087 87.8292 214.536 88.9572 213.441 89.8559C212.057 90.9859 210.149 90.7974 208.545 90.8014C206.62 90.8054 206.62 94.2713 208.545 94.2713H209.773L209.375 90.8642C205.408 91.5464 201.421 91.9294 197.454 91.0398C197.319 92.1748 197.188 93.3128 197.053 94.4468C198.078 94.4957 199.095 94.5815 200.12 94.6294V91.1595C195.016 91.2253 189.694 89.6833 185.245 86.767C184.996 87.8481 184.743 88.9243 184.493 90.0005C186.527 89.9277 188.014 91.3599 189.713 92.4351C190.921 93.1971 192.712 91.5415 191.756 90.0593C191.451 89.5826 191.145 89.1098 190.837 88.6331C190.406 89.5048 189.979 90.3755 189.549 91.2442C190.611 91.2891 191.521 91.9633 192.471 92.4321C193.117 92.7503 193.738 92.7463 194.28 92.1618C195.799 90.5161 200.147 91.4138 202.024 91.718V88.3728C200.618 88.6181 199.231 88.4625 197.824 88.3089V91.7788C200.588 91.8417 203.333 92.2536 206.099 92.3124C208.997 92.3763 211.847 91.6771 214.736 92.2516V88.9054C213.79 89.1796 212.8 89.1796 211.854 88.9054L211.458 92.3124C214.654 92.3084 218.55 92.4551 221.093 89.8459C222.326 88.5892 220.978 86.6812 219.642 86.9475C218.495 87.1719 217.372 87.4911 216.208 87.5978C216.457 88.677 216.711 89.7501 216.962 90.8293C218.223 90.1411 219.511 89.5148 220.792 88.8754C222.555 87.9908 221.03 85.0026 219.285 85.8833" fill="#F6921E"/>
<path d="M200.155 94.8206C201.983 94.9231 203.81 94.9231 205.638 94.8206C207.182 94.7301 207.716 91.8972 206.025 91.6333C203.929 91.3071 201.861 91.4488 199.757 91.4618C199.884 92.5264 200.015 93.5845 200.142 94.6481C201.651 94.4011 203.074 94.1913 204.476 93.481C206.178 92.6159 204.702 89.8249 203.013 90.6844C201.889 91.253 200.578 91.3276 199.371 91.5233C197.723 91.7955 198.162 94.7227 199.756 94.7124C201.579 94.6947 203.442 94.4812 205.256 94.7628C205.382 93.701 205.511 92.6401 205.639 91.5765C203.812 91.6818 201.982 91.6818 200.156 91.5765C198.286 91.4711 198.296 94.718 200.156 94.8243" fill="#A87C4F"/>
<path d="M213.723 85.3856C211.36 86.178 208.996 86.6525 206.53 86.7774C204.98 86.8557 204.459 89.7083 206.144 89.9637C206.602 90.0392 207.065 90.0586 207.525 90.0215C209.063 89.905 209.618 87.1428 207.914 86.8389C207.805 86.8176 207.695 86.7974 207.585 86.7783C207.921 87.154 208.262 87.5334 208.597 87.9138C208.558 88.5057 208.571 88.5113 208.627 87.9305C208.603 87.6828 208.57 87.4361 208.528 87.1913C208.205 85.1321 205.416 86.0065 205.734 88.0508C205.608 87.2426 205.745 88.6073 205.804 88.7751C206.059 89.4957 206.463 89.8425 207.143 89.9646C207.271 88.9019 207.401 87.8411 207.526 86.7783C207.323 86.7908 207.119 86.811 206.917 86.8389C206.79 87.8989 206.661 88.9606 206.531 90.0215C209.231 89.888 211.906 89.3805 214.495 88.5104C216.281 87.9166 215.517 84.7843 213.723 85.3856" fill="#A87C4F"/>
<path d="M200.055 80.316C202.451 80.3085 204.843 80.2284 207.235 80.4269C207.106 79.3651 206.978 78.3015 206.848 77.2416C205.93 77.4886 204.985 77.4401 204.043 77.5194C202.445 77.6508 202.033 80.1724 203.66 80.7047C204.488 80.9779 205.407 81.0562 206.206 81.4328C206.32 80.4446 206.432 79.4556 206.551 78.4693C204.91 79.1489 203.258 79.7632 201.567 80.2545C200.545 80.5509 200.114 82.1441 200.927 82.9653C201.289 83.3317 201.606 83.6934 202.018 83.9992V81.2025C201.818 81.3498 201.619 81.499 201.42 81.6491C200.697 82.1879 200.376 83.4799 201.126 84.1977C201.556 84.6098 201.916 85.0311 202.415 85.3434L202.762 82.3752C202.397 82.5505 202.116 82.7146 201.823 83.0175C201.18 83.6775 201.278 85.1346 202.116 85.5643C202.435 85.7266 202.722 85.8682 203.063 85.9484C204.886 86.3726 205.661 83.2478 203.835 82.8227C203.748 82.8022 203.665 82.7817 203.581 82.764L203.873 85.3089C203.761 85.3742 203.647 85.4404 203.534 85.5047C204.613 84.9994 205.09 83.2916 203.88 82.5375C203.603 82.3641 203.417 82.1291 203.177 81.898C203.077 82.7472 202.984 83.5955 202.883 84.4429C203.083 84.2984 203.282 84.1492 203.482 83.9982C204.41 83.3065 204.415 81.8886 203.482 81.1923C203.319 81.011 203.151 80.8357 202.978 80.6665C202.763 81.5698 202.55 82.4731 202.336 83.3774C204.028 82.888 205.685 82.2699 207.321 81.5894C208.339 81.1708 208.95 79.2328 207.667 78.6278C206.61 78.1272 205.523 77.9295 204.429 77.5697C204.302 78.6334 204.17 79.6961 204.042 80.756C205.249 80.659 206.437 80.6833 207.62 80.3635C209.286 79.9161 208.797 77.3068 207.234 77.1782C204.843 76.9796 202.45 77.0579 200.054 77.0654C198.187 77.0784 198.187 80.3197 200.054 80.316" fill="#A87C4F"/>
<path d="M210.537 80.7029C212.826 81.5149 214.979 82.6783 217.069 84.0001C217.44 83.012 217.812 82.0229 218.185 81.0357C217.594 80.8539 217.014 80.8222 216.405 80.7532C215.757 80.6768 215.185 81.3079 215.006 81.9418C215.27 80.99 216.265 81.0292 215.574 81.0515C215.204 81.0525 214.831 81.0096 214.467 80.9732C213.817 80.9043 213.17 80.7784 212.516 80.7532C211.231 80.702 210.626 82.5468 211.492 83.5219C212.163 84.2798 212.88 84.5026 213.811 84.5529C215.682 84.6639 215.672 81.4207 213.811 81.3098C213.724 81.2809 213.632 81.2548 213.544 81.2268C213.2 82.1488 212.861 83.0716 212.518 83.9973C214.107 84.0561 217.136 85.199 217.802 82.805C217.337 83.204 216.873 83.6002 216.406 83.9973C216.746 84.0188 217.084 84.0756 217.418 84.1614C218.999 84.6489 219.975 82.1096 218.532 81.196C216.231 79.7399 213.832 78.4665 211.309 77.5735C209.516 76.9433 208.758 80.0783 210.537 80.7029" fill="#A87C4F"/>
<path d="M218.671 86.6909C218.355 87.0908 218.026 87.4647 217.661 87.8068C217.75 87.7378 217.722 87.7592 217.58 87.8758C217.494 87.9438 217.407 88.0072 217.32 88.0725C217.23 88.1344 217.139 88.1937 217.047 88.2505C217.071 88.2319 216.613 88.4901 216.819 88.3922C216.091 88.7325 215.579 89.4521 215.806 90.3881C215.996 91.1562 216.859 91.8638 217.589 91.5207C218.821 90.9437 219.835 90.1028 220.724 88.9842C221.248 88.3232 221.304 87.3416 220.724 86.69C220.187 86.0962 219.195 86.03 218.671 86.69" fill="#A87C4F"/>
<path d="M188.293 90.5782C189.06 90.5791 189.821 90.6947 190.583 90.8038C191.37 90.9128 192.031 89.9806 192.031 89.1817C192.031 88.2113 191.366 87.6697 190.583 87.5578C189.821 87.4525 189.06 87.3434 188.293 87.335C187.499 87.3276 186.842 88.0808 186.842 88.9599C186.842 89.8492 187.499 90.5707 188.293 90.5782Z" fill="#A87C4F"/>
<path d="M194.447 54.9253C190.04 57.2055 188.2 61.3641 190.265 65.9934C191.498 68.7556 193.458 71.1346 195.052 73.6926C197.086 76.9628 197.047 79.9542 195.431 83.409C194.801 84.7505 196.812 85.926 197.445 84.5761C199.729 79.7035 199.246 75.8655 196.365 71.4133C193.27 66.6283 188.454 60.6304 195.625 56.9221C196.962 56.2304 195.78 54.2336 194.447 54.9225" fill="#E6E7E8"/>
<path d="M202.091 87.2738C204.165 84.6795 204.64 82.0553 203.582 78.9063C202.422 75.4608 200.133 72.6595 200.096 68.8822C200.063 65.7546 201.627 62.7072 202.714 59.8425C203.831 56.8996 204.389 53.9547 203.79 50.8355C203.512 49.3729 201.266 49.9919 201.538 51.4498C202.609 57.0711 198.647 61.9549 197.883 67.3534C197.529 69.8676 198.012 72.3267 199.052 74.6284C200.686 78.2425 203.404 81.9294 200.439 85.6387C199.516 86.7956 201.156 88.4353 202.091 87.2719" fill="#E6E7E8"/>
<path d="M209.284 83.6809C209.256 81.1407 208.919 78.8194 208.086 76.4153C207.695 75.2929 207.027 74.3085 206.664 73.1702C206.299 72.0301 207.025 70.6803 207.55 69.7304C209.315 66.5478 211.175 64.0523 209.279 60.4306C208.582 59.105 206.569 60.275 207.257 61.595C209.11 65.1271 205.217 67.9871 204.41 71.2909C203.992 72.9931 204.596 74.5164 205.342 76.0256C206.548 78.4773 206.916 80.9757 206.943 83.6809C206.965 85.1715 209.3 85.1715 209.284 83.6809Z" fill="#E6E7E8"/>
<path d="M58.5703 113.59H65.0742L65.8477 118.512C66.832 116.684 67.957 115.312 69.2227 114.398C70.5117 113.484 71.8242 113.027 73.1602 113.027C75.7148 113.027 77.6016 113.812 78.8203 115.383C80.0391 116.953 80.6484 119.309 80.6484 122.449C80.6484 122.848 80.6133 123.328 80.543 123.891C80.4961 124.43 80.4141 125.004 80.2969 125.613C80.2031 126.199 80.0742 126.797 79.9102 127.406C79.7695 127.992 79.6172 128.531 79.4531 129.023H73.2656V124.523C73.2656 123.539 73.1953 122.73 73.0547 122.098C72.9375 121.465 72.7734 120.961 72.5625 120.586C72.3516 120.188 72.1055 119.918 71.8242 119.777C71.543 119.613 71.2383 119.531 70.9102 119.531C70.207 119.531 69.5508 119.766 68.9414 120.234C68.3555 120.68 67.8633 121.312 67.4648 122.133V162H58.5703V113.59ZM97.9453 162.527C95.8594 162.527 94.0078 162.141 92.3906 161.367C90.7969 160.594 89.4492 159.387 88.3477 157.746C87.2461 156.105 86.4141 154.008 85.8516 151.453C85.2891 148.875 85.0078 145.781 85.0078 142.172V133.031C85.0078 129.961 85.2305 127.336 85.6758 125.156C86.1445 122.953 86.7422 121.113 87.4688 119.637C88.2188 118.137 89.0742 116.953 90.0352 116.086C91.0195 115.219 92.0273 114.562 93.0586 114.117C94.0898 113.648 95.1094 113.355 96.1172 113.238C97.1484 113.098 98.0977 113.027 98.9648 113.027C100.559 113.027 102.094 113.273 103.57 113.766C105.047 114.234 106.348 115.055 107.473 116.227C108.598 117.375 109.488 118.922 110.145 120.867C110.824 122.812 111.164 125.238 111.164 128.145C111.164 129.129 111.129 130.125 111.059 131.133C111.012 132.141 110.941 133.137 110.848 134.121C110.754 135.082 110.625 136.02 110.461 136.934C110.32 137.848 110.168 138.691 110.004 139.465H93.9375V144.387C93.9375 146.496 94.0195 148.277 94.1836 149.73C94.3477 151.16 94.6172 152.32 94.9922 153.211C95.3906 154.078 95.918 154.711 96.5742 155.109C97.2539 155.484 98.0977 155.672 99.1055 155.672C99.6445 155.672 100.172 155.566 100.688 155.355C101.203 155.121 101.648 154.746 102.023 154.23C102.422 153.715 102.738 153.035 102.973 152.191C103.207 151.324 103.324 150.258 103.324 148.992V147.48H110.742V149.344C110.742 153.938 109.641 157.289 107.438 159.398C105.258 161.484 102.094 162.527 97.9453 162.527ZM102.867 133.488C102.891 133.23 102.914 132.891 102.938 132.469C102.961 132.023 102.973 131.566 102.973 131.098C102.996 130.629 103.008 130.172 103.008 129.727C103.008 129.258 103.008 128.859 103.008 128.531C103.008 125.344 102.633 123.047 101.883 121.641C101.133 120.234 100.02 119.531 98.543 119.531C97.7695 119.531 97.0898 119.719 96.5039 120.094C95.918 120.445 95.4375 121.055 95.0625 121.922C94.6875 122.766 94.4062 123.891 94.2188 125.297C94.0312 126.703 93.9375 128.449 93.9375 130.535V133.488H102.867ZM129.973 162.527C125.895 162.527 122.777 160.852 120.621 157.5C118.488 154.148 117.422 149.039 117.422 142.172V133.031C117.422 129.961 117.645 127.336 118.09 125.156C118.535 122.953 119.121 121.113 119.848 119.637C120.598 118.137 121.441 116.953 122.379 116.086C123.34 115.219 124.324 114.562 125.332 114.117C126.34 113.648 127.336 113.355 128.32 113.238C129.305 113.098 130.207 113.027 131.027 113.027C132.668 113.027 134.168 113.25 135.527 113.695C136.887 114.117 138.059 114.773 139.043 115.664C140.027 116.531 140.789 117.633 141.328 118.969C141.867 120.305 142.137 121.875 142.137 123.68C142.137 124.805 142.078 125.777 141.961 126.598C141.867 127.395 141.727 128.168 141.539 128.918H134.438V127.301C134.438 124.863 134.145 122.965 133.559 121.605C132.996 120.223 132.059 119.531 130.746 119.531C130.02 119.531 129.387 119.707 128.848 120.059C128.309 120.387 127.852 120.961 127.477 121.781C127.125 122.602 126.855 123.703 126.668 125.086C126.504 126.469 126.422 128.203 126.422 130.289V144.035C126.422 146.145 126.492 147.938 126.633 149.414C126.773 150.891 127.02 152.098 127.371 153.035C127.723 153.949 128.191 154.617 128.777 155.039C129.363 155.461 130.09 155.672 130.957 155.672C131.402 155.672 131.836 155.566 132.258 155.355C132.68 155.121 133.043 154.746 133.348 154.23C133.676 153.715 133.934 153.035 134.121 152.191C134.332 151.324 134.438 150.258 134.438 148.992V147.48H142.102V149.344C142.102 153.938 141.082 157.289 139.043 159.398C137.027 161.484 134.004 162.527 129.973 162.527ZM154.09 106.664C152.449 106.664 151.148 106.172 150.188 105.188C149.25 104.203 148.781 102.762 148.781 100.863C148.781 99.8086 148.898 98.9297 149.133 98.2266C149.391 97.5 149.742 96.9258 150.188 96.5039C150.656 96.0586 151.219 95.7422 151.875 95.5547C152.531 95.3438 153.281 95.2383 154.125 95.2383C155.883 95.2383 157.219 95.6836 158.133 96.5742C159.047 97.4648 159.504 98.8945 159.504 100.863C159.504 102.691 159.035 104.121 158.098 105.152C157.184 106.16 155.848 106.664 154.09 106.664ZM149.484 113.59H158.379V162H149.484V113.59ZM176.59 164.742V177.645H167.695V113.59H174.656L175.465 118.688C175.863 118.031 176.332 117.363 176.871 116.684C177.434 116.004 178.078 115.406 178.805 114.891C179.555 114.352 180.387 113.918 181.301 113.59C182.238 113.238 183.281 113.062 184.43 113.062C184.922 113.062 185.508 113.109 186.188 113.203C186.891 113.297 187.605 113.531 188.332 113.906C189.082 114.281 189.82 114.844 190.547 115.594C191.297 116.32 191.953 117.328 192.516 118.617C193.102 119.906 193.57 121.512 193.922 123.434C194.297 125.355 194.484 127.688 194.484 130.43V145.09C194.484 147.832 194.297 150.164 193.922 152.086C193.57 154.008 193.102 155.613 192.516 156.902C191.93 158.191 191.262 159.211 190.512 159.961C189.762 160.711 189 161.273 188.227 161.648C187.453 162.023 186.703 162.258 185.977 162.352C185.25 162.469 184.617 162.527 184.078 162.527C182.203 162.527 180.633 162.164 179.367 161.438C178.125 160.711 177.105 159.832 176.309 158.801L176.59 164.742ZM176.59 152.121C176.777 152.59 177 153.035 177.258 153.457C177.539 153.879 177.855 154.254 178.207 154.582C178.582 154.91 178.992 155.18 179.438 155.391C179.906 155.578 180.445 155.672 181.055 155.672C181.711 155.672 182.309 155.555 182.848 155.32C183.387 155.062 183.855 154.617 184.254 153.984C184.652 153.328 184.957 152.426 185.168 151.277C185.402 150.129 185.52 148.652 185.52 146.848V128.32C185.52 126.516 185.402 125.051 185.168 123.926C184.957 122.777 184.652 121.875 184.254 121.219C183.879 120.562 183.422 120.117 182.883 119.883C182.344 119.648 181.746 119.531 181.09 119.531C179.965 119.531 179.039 119.871 178.312 120.551C177.609 121.207 177.035 121.98 176.59 122.871V152.121ZM214.172 162.527C212.086 162.527 210.234 162.141 208.617 161.367C207.023 160.594 205.676 159.387 204.574 157.746C203.473 156.105 202.641 154.008 202.078 151.453C201.516 148.875 201.234 145.781 201.234 142.172V133.031C201.234 129.961 201.457 127.336 201.902 125.156C202.371 122.953 202.969 121.113 203.695 119.637C204.445 118.137 205.301 116.953 206.262 116.086C207.246 115.219 208.254 114.562 209.285 114.117C210.316 113.648 211.336 113.355 212.344 113.238C213.375 113.098 214.324 113.027 215.191 113.027C216.785 113.027 218.32 113.273 219.797 113.766C221.273 114.234 222.574 115.055 223.699 116.227C224.824 117.375 225.715 118.922 226.371 120.867C227.051 122.812 227.391 125.238 227.391 128.145C227.391 129.129 227.355 130.125 227.285 131.133C227.238 132.141 227.168 133.137 227.074 134.121C226.98 135.082 226.852 136.02 226.688 136.934C226.547 137.848 226.395 138.691 226.23 139.465H210.164V144.387C210.164 146.496 210.246 148.277 210.41 149.73C210.574 151.16 210.844 152.32 211.219 153.211C211.617 154.078 212.145 154.711 212.801 155.109C213.48 155.484 214.324 155.672 215.332 155.672C215.871 155.672 216.398 155.566 216.914 155.355C217.43 155.121 217.875 154.746 218.25 154.23C218.648 153.715 218.965 153.035 219.199 152.191C219.434 151.324 219.551 150.258 219.551 148.992V147.48H226.969V149.344C226.969 153.938 225.867 157.289 223.664 159.398C221.484 161.484 218.32 162.527 214.172 162.527ZM219.094 133.488C219.117 133.23 219.141 132.891 219.164 132.469C219.188 132.023 219.199 131.566 219.199 131.098C219.223 130.629 219.234 130.172 219.234 129.727C219.234 129.258 219.234 128.859 219.234 128.531C219.234 125.344 218.859 123.047 218.109 121.641C217.359 120.234 216.246 119.531 214.77 119.531C213.996 119.531 213.316 119.719 212.73 120.094C212.145 120.445 211.664 121.055 211.289 121.922C210.914 122.766 210.633 123.891 210.445 125.297C210.258 126.703 210.164 128.449 210.164 130.535V133.488H219.094ZM234.914 98.0508H243.809V110.953L243.527 117.352L243.562 117.387C243.961 116.824 244.418 116.285 244.934 115.77C245.473 115.254 246.07 114.797 246.727 114.398C247.406 113.977 248.145 113.648 248.941 113.414C249.762 113.18 250.652 113.062 251.613 113.062C252.105 113.062 252.691 113.109 253.371 113.203C254.074 113.297 254.789 113.531 255.516 113.906C256.266 114.281 257.004 114.844 257.73 115.594C258.48 116.32 259.137 117.328 259.699 118.617C260.285 119.906 260.754 121.512 261.105 123.434C261.48 125.355 261.668 127.688 261.668 130.43V145.09C261.668 147.832 261.48 150.164 261.105 152.086C260.754 154.008 260.285 155.625 259.699 156.938C259.113 158.227 258.445 159.246 257.695 159.996C256.945 160.746 256.184 161.309 255.41 161.684C254.637 162.059 253.887 162.293 253.16 162.387C252.434 162.504 251.801 162.562 251.262 162.562C250.137 162.562 249.117 162.422 248.203 162.141C247.312 161.859 246.516 161.484 245.812 161.016C245.133 160.523 244.523 159.973 243.984 159.363C243.469 158.754 243.012 158.133 242.613 157.5L241.875 162H234.914V98.0508ZM243.809 152.191C243.996 152.637 244.219 153.07 244.477 153.492C244.758 153.914 245.074 154.289 245.426 154.617C245.777 154.922 246.188 155.18 246.656 155.391C247.125 155.578 247.652 155.672 248.238 155.672C248.895 155.672 249.492 155.555 250.031 155.32C250.57 155.062 251.039 154.617 251.438 153.984C251.836 153.328 252.141 152.426 252.352 151.277C252.586 150.129 252.703 148.652 252.703 146.848V128.32C252.703 126.516 252.586 125.051 252.352 123.926C252.141 122.777 251.836 121.875 251.438 121.219C251.062 120.562 250.605 120.117 250.066 119.883C249.527 119.648 248.93 119.531 248.273 119.531C247.172 119.531 246.258 119.859 245.531 120.516C244.828 121.148 244.254 121.91 243.809 122.801V152.191ZM281.918 162.527C280.887 162.527 279.832 162.445 278.754 162.281C277.699 162.117 276.668 161.777 275.66 161.262C274.676 160.746 273.738 160.008 272.848 159.047C271.98 158.086 271.219 156.82 270.562 155.25C269.906 153.68 269.391 151.746 269.016 149.449C268.641 147.152 268.453 144.41 268.453 141.223V133.629C268.453 130.488 268.641 127.805 269.016 125.578C269.414 123.328 269.941 121.441 270.598 119.918C271.277 118.395 272.062 117.188 272.953 116.297C273.844 115.383 274.781 114.691 275.766 114.223C276.773 113.73 277.805 113.414 278.859 113.273C279.914 113.109 280.945 113.027 281.953 113.027C282.914 113.027 283.91 113.098 284.941 113.238C285.973 113.379 286.98 113.684 287.965 114.152C288.949 114.598 289.875 115.277 290.742 116.191C291.633 117.082 292.406 118.289 293.062 119.812C293.742 121.336 294.27 123.234 294.645 125.508C295.043 127.758 295.242 130.465 295.242 133.629V141.223C295.242 144.363 295.043 147.07 294.645 149.344C294.246 151.617 293.707 153.539 293.027 155.109C292.348 156.68 291.562 157.957 290.672 158.941C289.781 159.902 288.844 160.652 287.859 161.191C286.875 161.73 285.867 162.082 284.836 162.246C283.828 162.434 282.855 162.527 281.918 162.527ZM281.988 155.672C282.785 155.672 283.453 155.473 283.992 155.074C284.555 154.652 285 153.973 285.328 153.035C285.68 152.098 285.926 150.867 286.066 149.344C286.23 147.797 286.312 145.887 286.312 143.613V131.695C286.312 129.422 286.23 127.512 286.066 125.965C285.926 124.418 285.68 123.176 285.328 122.238C285 121.277 284.555 120.586 283.992 120.164C283.453 119.742 282.785 119.531 281.988 119.531C281.145 119.531 280.43 119.742 279.844 120.164C279.281 120.586 278.812 121.277 278.438 122.238C278.062 123.176 277.793 124.418 277.629 125.965C277.465 127.512 277.383 129.422 277.383 131.695V143.613C277.383 145.887 277.465 147.797 277.629 149.344C277.793 150.867 278.062 152.098 278.438 153.035C278.812 153.973 279.281 154.652 279.844 155.074C280.43 155.473 281.145 155.672 281.988 155.672ZM309.48 137.426L299.918 113.59H309.023L314.191 129.445H314.262L319.746 113.59H328.254L319.078 136.582L329.379 162H320.273L314.297 145.301H314.016L307.969 162H299.426L309.48 137.426Z" fill="#716868"/>
<path d="M239.535 90.3784C239.535 90.3784 244.703 90.2168 245.77 87.2858C246.46 85.3877 245.376 80.0351 245.376 76.714C245.376 75.5901 244.623 75.0064 243.17 75.0064H233.805C233.078 75.0064 231.654 74.8076 231.654 76.6192C231.654 79.8704 230.514 85.2261 231.244 87.1037C232.456 90.2168 237.597 90.3784 237.597 90.3784V92.7485C237.597 92.7485 234.636 94.5244 234.046 94.9365C233.41 95.363 233.832 96.046 234.086 96.1637C234.51 96.3595 235.542 97 238.466 97C241.464 97 242.473 96.3063 242.836 96.1637C242.977 96.109 243.707 95.4564 242.843 94.856C241.307 93.7875 239.535 92.7485 239.535 92.7485V90.3784Z" fill="#8899A6"/>
<path d="M246 76C246 77.1046 244.322 78 239 78C233.678 78 232 77.1046 232 76C232 74.8947 233.678 74 239 74C244.322 74 246 74.8954 246 76Z" fill="#CCD6DD"/>
<path d="M233.01 76.4851C234.365 83.6978 231.407 86.7977 234.392 88.0003C237.996 89.4512 240.059 89.2098 243.32 88.0003C246.305 86.8934 244.315 82.7806 244.73 76.7698C244.837 75.2233 233.01 76.4851 233.01 76.4851V76.4851Z" fill="#CCD6DD"/>
<path d="M232.53 81.031C232.471 81.8497 231.757 85.6641 232.087 86.5432C232.441 87.4881 233.328 89 238.413 89C242.138 89 244.503 87.8034 244.888 86.2915C245.222 84.9762 244.71 82.0712 244.651 81" fill="#F4900C"/>
<path d="M239 82C242.314 82 245 81.5523 245 81C245 80.4477 242.314 80 239 80C235.686 80 233 80.4477 233 81C233 81.5523 235.686 82 239 82Z" fill="#FFCC4D"/>
<path d="M243.568 74C243.568 74 239.284 83.747 239.06 84.194C238.787 84.7405 239.495 85.507 240.124 84.5324C240.751 83.5578 245 74.9347 245 74.9347L243.568 74Z" fill="#C1694F"/>
<path d="M238.4 78C235.515 78 233.242 77.4392 232.387 77.1072C232.226 77.0445 232.101 76.9313 232.04 76.7924C231.979 76.6534 231.988 76.5003 232.064 76.3665C232.139 76.2328 232.276 76.1294 232.444 76.0792C232.611 76.0289 232.796 76.0359 232.958 76.0986C233.008 76.1181 238.14 77.9231 244.087 76.0368C244.17 76.0107 244.258 75.9982 244.346 76.0002C244.434 76.0022 244.521 76.0186 244.602 76.0484C244.682 76.0782 244.755 76.1209 244.816 76.174C244.876 76.2271 244.924 76.2896 244.956 76.3579C244.987 76.4262 245.002 76.499 245 76.5721C244.997 76.6452 244.978 76.7172 244.942 76.784C244.906 76.8508 244.854 76.9111 244.79 76.9614C244.726 77.0117 244.65 77.051 244.568 77.0772C242.402 77.7644 240.272 78 238.4 78V78Z" fill="white"/>
<path d="M240.516 81L240 82C240.545 81.987 241.13 81.9449 241.628 81.888L242 81.2597C241.518 81.2668 241.034 81.1846 240.516 81V81Z" fill="#FFAC33"/>
<path d="M239.068 84.2832C238.76 84.7692 239.558 85.4509 240.268 84.5842C240.503 84.2963 241.189 83.2575 242 82C241.519 82.0405 240.894 82.0754 240.305 82.1003C239.899 82.8303 239.487 83.5579 239.068 84.2832V84.2832Z" fill="#CC6F00"/>
<path d="M249.798 77.2058C249.128 76.0391 246.254 71.5317 246.131 71.3378C246.07 71.2427 245.99 71.1653 245.897 71.1118C245.804 71.0584 245.701 71.0304 245.597 71.0302C244.639 71.0302 242.469 71.0184 240.848 71.0096C239.875 71.0044 239.099 71 238.894 71C238.469 71 238.119 71.3134 238.025 71.781C237.804 72.8724 239.028 74.9454 243.207 77.1962C245.975 78.6866 247.581 79 248.44 79H248.441C249.409 79 249.779 78.5937 249.92 78.2529C250.06 77.9093 250.014 77.5221 249.798 77.2058V77.2058Z" fill="#77B255"/>
<path d="M245 77.8131C246.831 78.7713 247.965 79 248.613 79H248.613C249.474 79 249.803 78.6025 249.928 78.2691C250.054 77.9336 250.013 77.5548 249.821 77.2453C249.439 76.5144 248.255 74.4452 247.423 73C247.897 74.8593 248.072 77.6659 245 77.8131V77.8131Z" fill="#5C913B"/>
<path d="M243 72C243.552 72 244 71.5523 244 71C244 70.4477 243.552 70 243 70C242.448 70 242 70.4477 242 71C242 71.5523 242.448 72 243 72Z" fill="#3E721D"/>
</svg>
